<?xml version="1.0" encoding="UTF-8"?>
<svg xmlns="http://www.w3.org/2000/svg" width="1000" height="700" viewBox="0 0 1000 700">
  <defs>
    <!-- Gradients for styling -->
    <linearGradient id="skyGradient" x1="0%" y1="0%" x2="0%" y2="100%">
      <stop offset="0%" style="stop-color:#87CEEB;stop-opacity:1" />
      <stop offset="100%" style="stop-color:#E0F6FF;stop-opacity:1" />
    </linearGradient>
    <linearGradient id="grassGradient" x1="0%" y1="0%" x2="0%" y2="100%">
      <stop offset="0%" style="stop-color:#90EE90;stop-opacity:1" />
      <stop offset="100%" style="stop-color:#228B22;stop-opacity:1" />
    </linearGradient>
    <linearGradient id="roofGradient" x1="0%" y1="0%" x2="0%" y2="100%">
      <stop offset="0%" style="stop-color:#CD5C5C;stop-opacity:1" />
      <stop offset="100%" style="stop-color:#8B3A3A;stop-opacity:1" />
    </linearGradient>
  </defs>

  <!-- Sky background -->
  <rect width="1000" height="700" fill="url(#skyGradient)"/>

  <!-- Sun - Circle shape with text -->
  <g id="sun">
    <circle cx="900" cy="80" r="50" fill="#FFD700" opacity="0.9"/>
    <circle cx="900" cy="80" r="50" fill="none" stroke="#FFA500" stroke-width="3" opacity="0.6"/>
    <text x="900" y="90" font-size="24" fill="#FFF" text-anchor="middle" font-weight="bold">☀</text>
  </g>

  <!-- Grass area -->
  <rect x="0" y="400" width="1000" height="400" fill="url(#grassGradient)"/>

  <!-- Garden path - using path element -->
  <path d="M 400 500 Q 420 550 400 600 Q 380 620 400 650" 
        stroke="#D2B48C" stroke-width="30" fill="none" stroke-linecap="round"/>
  
  <!-- Pathway circles -->
  <g id="pathstones">
    <circle cx="400" cy="530" r="12" fill="#A0826D" opacity="0.8"/>
    <circle cx="420" cy="560" r="12" fill="#A0826D" opacity="0.8"/>
    <circle cx="410" cy="590" r="12" fill="#A0826D" opacity="0.8"/>
    <circle cx="395" cy="620" r="12" fill="#A0826D" opacity="0.8"/>
  </g>

  <!-- Tree 1 - grouped with transformations -->
  <g id="tree1" transform="translate(150, 400)">
    <!-- Trunk - rectangle -->
    <rect x="-15" y="0" width="30" height="80" fill="#8B4513" rx="5"/>
    <!-- Foliage - circles -->
    <circle cx="0" cy="-20" r="50" fill="#228B22"/>
    <circle cx="-40" cy="10" r="45" fill="#2E8B57"/>
    <circle cx="40" cy="10" r="45" fill="#2E8B57"/>
    <!-- Highlight -->
    <ellipse cx="-15" cy="-30" rx="20" ry="25" fill="#90EE90" opacity="0.4"/>
  </g>

  <!-- Tree 2 - scaled transformation -->
  <g id="tree2" transform="translate(800, 420) scale(0.8)">
    <rect x="-15" y="0" width="30" height="80" fill="#654321" rx="5"/>
    <circle cx="0" cy="-20" r="50" fill="#1a5c1a"/>
    <circle cx="-40" cy="10" r="45" fill="#2d7a2d"/>
    <circle cx="40" cy="10" r="45" fill="#2d7a2d"/>
    <ellipse cx="20" cy="-35" rx="18" ry="22" fill="#90EE90" opacity="0.4"/>
  </g>

  <!-- Flower 1 - using circle and path -->
  <g id="flower1" transform="translate(250, 550)">
    <!-- Stem - path -->
    <path d="M 0 0 Q -5 30 0 60" stroke="#228B22" stroke-width="4" fill="none"/>
    <!-- Petals - circles -->
    <circle cx="0" cy="-20" r="15" fill="#FF69B4"/>
    <circle cx="18" cy="-12" r="15" fill="#FFB6C1"/>
    <circle cx="18" cy="12" r="15" fill="#FF69B4"/>
    <circle cx="0" cy="20" r="15" fill="#FFB6C1"/>
    <circle cx="-18" cy="12" r="15" fill="#FF69B4"/>
    <circle cx="-18" cy="-12" r="15" fill="#FFB6C1"/>
    <!-- Center -->
    <circle cx="0" cy="0" r="10" fill="#FFD700"/>
  </g>

  <!-- Flower 2 - rotated transformation -->
  <g id="flower2" transform="translate(680, 580) rotate(45)">
    <path d="M 0 0 Q 3 25 0 50" stroke="#228B22" stroke-width="3" fill="none"/>
    <circle cx="0" cy="-15" r="12" fill="#FF6347"/>
    <circle cx="14" cy="-8" r="12" fill="#FF7F50"/>
    <circle cx="14" cy="8" r="12" fill="#FF6347"/>
    <circle cx="0" cy="15" r="12" fill="#FF7F50"/>
    <circle cx="-14" cy="8" r="12" fill="#FF6347"/>
    <circle cx="-14" cy="-8" r="12" fill="#FF7F50"/>
    <circle cx="0" cy="0" r="8" fill="#FFD700"/>
  </g>

  <!-- House - grouped elements -->
  <g id="house">
    <!-- Main walls - rectangle -->
    <rect x="400" y="280" width="200" height="180" fill="#D2691E" stroke="#8B4513" stroke-width="3"/>

    <!-- Roof - path creating triangle -->
    <path d="M 400 280 L 500 150 L 600 280 Z" fill="url(#roofGradient)" stroke="#8B3A3A" stroke-width="2"/>
    
    <!-- Roof ridge line -->
    <line x1="500" y1="150" x2="500" y2="280" stroke="#654321" stroke-width="1" opacity="0.5"/>

    <!-- Door - rectangle with styling -->
    <g id="door">
      <rect x="460" y="360" width="80" height="100" fill="#654321" stroke="#3E2723" stroke-width="2"/>
      <!-- Door handle - circle -->
      <circle cx="535" cy="410" r="4" fill="#FFD700"/>
      <!-- Door window -->
      <rect x="472" y="368" width="56" height="30" fill="#87CEEB" opacity="0.6" stroke="#696969" stroke-width="1"/>
    </g>

    <!-- Left window - rectangle -->
    <g id="window-left">
      <rect x="420" y="310" width="50" height="50" fill="#87CEEB" stroke="#696969" stroke-width="2"/>
      <!-- Window panes - lines -->
      <line x1="445" y1="310" x2="445" y2="360" stroke="#696969" stroke-width="1"/>
      <line x1="420" y1="335" x2="470" y2="335" stroke="#696969" stroke-width="1"/>
    </g>

    <!-- Right window - rectangle and lines -->
    <g id="window-right">
      <rect x="530" y="310" width="50" height="50" fill="#87CEEB" stroke="#696969" stroke-width="2"/>
      <line x1="555" y1="310" x2="555" y2="360" stroke="#696969" stroke-width="1"/>
      <line x1="530" y1="335" x2="580" y2="335" stroke="#696969" stroke-width="1"/>
    </g>

    <!-- Chimney - rectangle -->
    <rect x="550" y="180" width="30" height="120" fill="#A0522D" stroke="#654321" stroke-width="2"/>
    <!-- Chimney top -->
    <rect x="548" y="170" width="34" height="15" fill="#8B4513" stroke="#654321" stroke-width="1"/>
  </g>

  <!-- Fence - lines and rectangles -->
  <g id="fence">
    <!-- Fence posts -->
    <rect x="100" y="450" width="8" height="70" fill="#654321"/>
    <rect x="200" y="450" width="8" height="70" fill="#654321"/>
    <rect x="300" y="450" width="8" height="70" fill="#654321"/>
    <!-- Fence rails - lines -->
    <line x1="108" y1="460" x2="300" y2="460" stroke="#8B4513" stroke-width="6"/>
    <line x1="108" y1="490" x2="300" y2="490" stroke="#8B4513" stroke-width="6"/>
  </g>

  <!-- Clouds - ellipses -->
  <g id="clouds" opacity="0.7">
    <ellipse cx="150" cy="100" rx="60" ry="35" fill="#FFFFFF"/>
    <ellipse cx="100" cy="110" rx="40" ry="25" fill="#FFFFFF"/>
    <ellipse cx="200" cy="110" rx="45" ry="28" fill="#FFFFFF"/>
    
    <ellipse cx="750" cy="150" rx="55" ry="32" fill="#FFFFFF"/>
    <ellipse cx="710" cy="160" rx="38" ry="24" fill="#FFFFFF"/>
    <ellipse cx="800" cy="160" rx="42" ry="26" fill="#FFFFFF"/>
  </g>

  <!-- Labels and text annotations -->
  <g id="labels" font-family="Arial, sans-serif" font-size="16" fill="#000000">
    <!-- House label -->
    <text x="500" y="550" text-anchor="middle" font-weight="bold" fill="#333333">
      My Dream House
    </text>
    
    <!-- Garden label -->
    <text x="250" y="650" text-anchor="middle" font-size="14" fill="#2F5233" font-style="italic">
      Garden Path
    </text>

    <!-- Signature -->
    <text x="950" y="680" text-anchor="end" font-size="12" fill="#666666" opacity="0.7">
      Exercise 4.1 - SVG Visualization
    </text>
  </g>

  <!-- Decorative border - rectangle with no fill -->
  <rect x="5" y="5" width="990" height="690" fill="none" stroke="#696969" stroke-width="3" stroke-dasharray="10,5"/>
</svg>
